<svg xmlns="http://www.w3.org/2000/svg" height="18" viewBox="0 0 18 18" width="18">
  <defs>
    <style>
      .fill {
        fill: #6e6e6e;
      }
    </style>
  </defs>
  <rect id="Canvas" fill="#ff13dc" opacity="0" width="18" height="18" /><g data-name="icons" id="icons-3">
    <path class="fill" d="M16.1472,6.11131A6.655,6.655,0,0,0,11.24626,4.0001a6.84083,6.84083,0,0,0-4.84117,2.022c-.21915-.01983-.43829-.03965-.64748-.03965A5.75549,5.75549,0,0,0,0,11.71149a5.90137,5.90137,0,0,0,1.61372,4.00438A5.68781,5.68781,0,0,0,5.75761,17.5h5.48865A6.74516,6.74516,0,0,0,16.1472,6.11131ZM5.658,16.53855A4.75273,4.75273,0,1,1,8.80576,8.23244l.01992.01983,1.98229,2.022a.84368.84368,0,0,1-.01992,1.19933.85386.85386,0,0,1-1.20532-.01982L7.62036,9.4516a3.05481,3.05481,0,0,0-4.2933.31718,2.99174,2.99174,0,0,0-.73713,1.97245A3.1329,3.1329,0,0,0,5.69784,14.8139h.38849v.00991a9.31692,9.31692,0,0,0,2.12175,1.71474Zm9.772-1.71474a5.70543,5.70543,0,0,1-4.08411,1.74448,5.95248,5.95248,0,0,1-4.104-1.78413L4.632,12.17735a.85255.85255,0,0,1,.01-1.19933.85712.85712,0,0,1,1.20531.01982l2.59989,2.587a4.19794,4.19794,0,0,0,2.89873,1.28854,3.93687,3.93687,0,0,0,2.86884-1.239,4.18055,4.18055,0,0,0,1.19535-2.924A4.086,4.086,0,0,0,11.326,6.64655a3.71128,3.71128,0,0,0-2.2612.65418c-.01-.00991-.19923-.12885-.40841-.25771-.1295-.07929-.269-.15858-.38849-.21806-.11954-.06938-.47814-.23788-.68733-.32709-.04981-.01982-.11953-.04955-.14942-.05947h.01A5.55539,5.55539,0,0,1,11.326,4.95163a5.778,5.778,0,0,1,5.7875,5.75877A5.847,5.847,0,0,1,15.43,14.82381Z" data-name=" 256" id="_256" />
  </g>
</svg>