<svg xmlns="http://www.w3.org/2000/svg" width="42" height="42" viewBox="0 0 42 42">
  <defs>
    <style>
      .n {
        fill: #fff;
      }

      .o {
        fill: #d73320;
      }
    </style>
  </defs>
  <g id="a" data-name="Mockup"/>
  <g id="b" data-name="Info"/>
  <g id="c" data-name="Color Categorization"/>
  <g id="d" data-name="42px@Circle">
    <circle id="e" data-name="Ellipse 10213-2" class="n" cx="21" cy="21" r="21"/>
  </g>
  <g id="f" data-name="28px@Circle"/>
  <g id="g" data-name="24px@Icons">
    <path class="o" d="M27.85244,9.10508s-2.93761-.34987-6.84084-.34987-6.86404,.34987-6.86404,.34987c0,0-4.7369,6.65931-6.06339,11.33385,5.32899,9.25997,12.67861,14.25169,12.91583,14.31628,.23175-.06407,7.17963-4.973,12.91583-14.31628-1.32643-4.67454-6.06339-11.33385-6.06339-11.33385Zm-4.85363,18.74299h-3.99755l-.72544-1.90488,2.72392-.42474,2.72444,.42474-.72537,1.90488Zm2.35889-2.48333c-.00837,.02927-.0375,.04746-.06743,.04218l-3.4104-.59823-.46699-1.36572,1.76343-1.34673c.04324-.03559,.01819-.10572-.0377-.10572h-4.27043c-.05589,0-.08094,.07013-.0377,.10572l1.76343,1.34673-.46686,1.36519-3.40644,.59823c-.02992,.00527-.05906-.01292-.06743-.04218l-2.74705-9.54392,4.04738,2.75358-.16379,3.04148c-.00382,.06829,.09208,.08806,.11541,.02346l1.66753-4.74125-5.69916-1.95181,2.89641-1.61803,4.23345,1.43216,4.19872-1.43216,2.92442,1.61856-5.69237,1.95129,1.66753,4.74125c.02327,.06459,.11924,.04482,.11535-.02346l-.16373-3.04148,4.04745-2.75358-2.74303,9.54445Z"/>
  </g>
  <g id="h" data-name="---------42PXCIRCLE_24PX---------"/>
  <g id="i" data-name="24px@Icons"/>
  <g id="j" data-name="---------24PX---------"/>
  <g id="k" data-name="18px@Icons"/>
  <g id="l" data-name="---------18PX---------"/>
  <g id="m" data-name="Names@Icons"/>
</svg>
