<?xml version="1.0" encoding="UTF-8"?>
<svg width="160px" height="160px" viewBox="0 0 160 160" version="1.1" xmlns="http://www.w3.org/2000/svg" xmlns:xlink="http://www.w3.org/1999/xlink">
    <title>Standard Icon</title>
    <g stroke="none" stroke-width="1" fill="none" fill-rule="evenodd">
        <circle fill="#F5F7F9" cx="80" cy="80" r="80"></circle>
        <g transform="translate(40, 30)" fill="#1473E6" fill-rule="nonzero">
            <path d="M48,0 L8,0 C3.6,0 0,3.6 0,8 L0,72 C0,76.4 3.6,80 8,80 L72,80 C76.4,80 80,76.4 80,72 L80,32 L48,0 Z M44,8 L72,36 L72,72 C72,72 72,72 72,72 L8,72 L8,8 L44,8 Z M16,24 L36,24 C38.2,24 40,22.2 40,20 C40,17.8 38.2,16 36,16 L16,16 C13.8,16 12,17.8 12,20 C12,22.2 13.8,24 16,24 Z M64,64 L16,64 C13.8,64 12,65.8 12,68 C12,70.2 13.8,72 16,72 L64,72 C66.2,72 68,70.2 68,68 C68,65.8 66.2,64 64,64 Z M64,48 L16,48 C13.8,48 12,49.8 12,52 C12,54.2 13.8,56 16,56 L64,56 C66.2,56 68,54.2 68,52 C68,49.8 66.2,48 64,48 Z M64,32 L16,32 C13.8,32 12,33.8 12,36 C12,38.2 13.8,40 16,40 L64,40 C66.2,40 68,38.2 68,36 C68,33.8 66.2,32 64,32 Z"></path>
        </g>
    </g>
</svg> 