<svg width="3800" height="1576" xmlns="http://www.w3.org/2000/svg" xmlns:xlink="http://www.w3.org/1999/xlink" xml:space="preserve" overflow="hidden"><g transform="translate(-435 -449)"><g><path d="M723 844.751 3163.5 844.751 3163.5 452 3949 1237.5 3163.5 2023 3163.5 1630.25 723 1630.25Z" fill="#F8D7CD" fill-rule="evenodd" fill-opacity="1"/><path d="M442.5 1028.34C442.5 970.436 489.436 923.5 547.335 923.5L1559.67 923.5C1617.56 923.5 1664.5 970.436 1664.5 1028.34L1664.5 1447.66C1664.5 1505.56 1617.56 1552.5 1559.67 1552.5L547.335 1552.5C489.436 1552.5 442.5 1505.56 442.5 1447.66Z" stroke="#FFFFFF" stroke-width="4.58333" stroke-linecap="butt" stroke-linejoin="miter" stroke-miterlimit="8" stroke-opacity="1" fill="#ED7D31" fill-rule="evenodd" fill-opacity="1"/><text fill="#FFFFFF" fill-opacity="1" font-family="Calibri,Calibri_MSFontService,sans-serif" font-style="normal" font-variant="normal" font-weight="400" font-stretch="normal" font-size="133" text-anchor="start" direction="ltr" writing-mode="lr-tb" unicode-bidi="normal" text-decoration="none" transform="matrix(1 0 0 1 525.148 1201)">Add the Form block </text><text fill="#FFFFFF" fill-opacity="1" font-family="Calibri,Calibri_MSFontService,sans-serif" font-style="normal" font-variant="normal" font-weight="400" font-stretch="normal" font-size="133" text-anchor="start" direction="ltr" writing-mode="lr-tb" unicode-bidi="normal" text-decoration="none" transform="matrix(1 0 0 1 533.764 1347)">to your EDS project</text><path d="M1725.5 1028.34C1725.5 970.436 1772.44 923.5 1830.33 923.5L2842.67 923.5C2900.56 923.5 2947.5 970.436 2947.5 1028.34L2947.5 1447.66C2947.5 1505.56 2900.56 1552.5 2842.67 1552.5L1830.33 1552.5C1772.44 1552.5 1725.5 1505.56 1725.5 1447.66Z" stroke="#FFFFFF" stroke-width="4.58333" stroke-linecap="butt" stroke-linejoin="miter" stroke-miterlimit="8" stroke-opacity="1" fill="#C48170" fill-rule="evenodd" fill-opacity="1"/><text fill="#FFFFFF" fill-opacity="1" font-family="Calibri,Calibri_MSFontService,sans-serif" font-style="normal" font-variant="normal" font-weight="400" font-stretch="normal" font-size="133" text-anchor="start" direction="ltr" writing-mode="lr-tb" unicode-bidi="normal" text-decoration="none" transform="matrix(1 0 0 1 1809.81 1128)">Create a form using </text><text fill="#FFFFFF" fill-opacity="1" font-family="Calibri,Calibri_MSFontService,sans-serif" font-style="normal" font-variant="normal" font-weight="400" font-stretch="normal" font-size="133" text-anchor="start" direction="ltr" writing-mode="lr-tb" unicode-bidi="normal" text-decoration="none" transform="matrix(1 0 0 1 1850.53 1274)">Microsoft Excel or </text><text fill="#FFFFFF" fill-opacity="1" font-family="Calibri,Calibri_MSFontService,sans-serif" font-style="normal" font-variant="normal" font-weight="400" font-stretch="normal" font-size="133" text-anchor="start" direction="ltr" writing-mode="lr-tb" unicode-bidi="normal" text-decoration="none" transform="matrix(1 0 0 1 1975.72 1420)">Google Sheet</text><path d="M3008.5 1028.34C3008.5 970.437 3055.44 923.5 3113.34 923.5L4124.66 923.5C4182.56 923.5 4229.5 970.437 4229.5 1028.34L4229.5 1447.66C4229.5 1505.56 4182.56 1552.5 4124.66 1552.5L3113.34 1552.5C3055.44 1552.5 3008.5 1505.56 3008.5 1447.66Z" stroke="#FFFFFF" stroke-width="4.58333" stroke-linecap="butt" stroke-linejoin="miter" stroke-miterlimit="8" stroke-opacity="1" fill="#A5A5A5" fill-rule="evenodd" fill-opacity="1"/><text fill="#FFFFFF" fill-opacity="1" font-family="Calibri,Calibri_MSFontService,sans-serif" font-style="normal" font-variant="normal" font-weight="400" font-stretch="normal" font-size="133" text-anchor="start" direction="ltr" writing-mode="lr-tb" unicode-bidi="normal" text-decoration="none" transform="matrix(1 0 0 1 3188.1 1201)">Add the form to </text><text fill="#FFFFFF" fill-opacity="1" font-family="Calibri,Calibri_MSFontService,sans-serif" font-style="normal" font-variant="normal" font-weight="400" font-stretch="normal" font-size="133" text-anchor="start" direction="ltr" writing-mode="lr-tb" unicode-bidi="normal" text-decoration="none" transform="matrix(1 0 0 1 3231.65 1347)">your EDS page</text></g></g></svg>